name Walk8.mot
datacolumns 19
datarows 20
range 1.46600000 1.48500000
endheader

                time	   L_ground_force_vx	   L_ground_force_vy	   L_ground_force_vz	   L_ground_force_px	   L_ground_force_py	   L_ground_force_pz	   R_ground_force_vx	   R_ground_force_vy	   R_ground_force_vz	   R_ground_force_px	   R_ground_force_py	   R_ground_force_pz	   L_ground_torque_x	   L_ground_torque_y	   L_ground_torque_z	   R_ground_torque_x	   R_ground_torque_y	   R_ground_torque_z	
          1.46600000	          0.00000000	          0.00000000	          0.00000000	          0.00000000	          0.00000000	          0.00000000	         22.16126734	        691.43649132	        -21.17100777	         -0.12566524	          0.00000000	          0.33196982	          0.00000000	          0.00000000	          0.00000000	          0.00000000	          0.71424706	          0.00000000	
          1.46700000	          0.00000000	          0.00000000	          0.00000000	          0.00000000	          0.00000000	          0.00000000	         22.47340011	        693.06389136	        -21.45707913	         -0.12515311	          0.00000000	          0.33193136	          0.00000000	          0.00000000	          0.00000000	          0.00000000	          0.66144788	          0.00000000	
          1.46800000	          0.00000000	          0.00000000	          0.00000000	          0.00000000	          0.00000000	          0.00000000	         22.80278480	        694.63645067	        -21.71963126	         -0.12461400	          0.00000000	          0.33193458	          0.00000000	          0.00000000	          0.00000000	          0.00000000	          0.62216930	          0.00000000	
          1.46900000	          0.00000000	          0.00000000	          0.00000000	          0.00000000	          0.00000000	          0.00000000	         23.14968292	        696.14122889	        -21.96346153	         -0.12404650	          0.00000000	          0.33201405	          0.00000000	          0.00000000	          0.00000000	          0.00000000	          0.59265412	          0.00000000	
          1.47000000	          0.00000000	          0.00000000	          0.00000000	          0.00000000	          0.00000000	          0.00000000	         23.51484883	        697.63174553	        -22.18993343	         -0.12347020	          0.00000000	          0.33215319	          0.00000000	          0.00000000	          0.00000000	          0.00000000	          0.57013727	          0.00000000	
          1.47100000	          0.00000000	          0.00000000	          0.00000000	          0.00000000	          0.00000000	          0.00000000	         23.89268509	        699.16266647	        -22.39780822	         -0.12290355	          0.00000000	          0.33230996	          0.00000000	          0.00000000	          0.00000000	          0.00000000	          0.55494694	          0.00000000	
          1.47200000	          0.00000000	          0.00000000	          0.00000000	          0.00000000	          0.00000000	          0.00000000	         24.27443022	        700.73910483	        -22.58916120	         -0.12235237	          0.00000000	          0.33245332	          0.00000000	          0.00000000	          0.00000000	          0.00000000	          0.54423860	          0.00000000	
          1.47300000	          0.00000000	          0.00000000	          0.00000000	          0.00000000	          0.00000000	          0.00000000	         24.65755120	        702.32503747	        -22.77066071	         -0.12181461	          0.00000000	          0.33258458	          0.00000000	          0.00000000	          0.00000000	          0.00000000	          0.52826178	          0.00000000	
          1.47400000	          0.00000000	          0.00000000	          0.00000000	          0.00000000	          0.00000000	          0.00000000	         25.04483041	        703.89699568	        -22.94748872	         -0.12129539	          0.00000000	          0.33270192	          0.00000000	          0.00000000	          0.00000000	          0.00000000	          0.49751491	          0.00000000	
          1.47500000	          0.00000000	          0.00000000	          0.00000000	          0.00000000	          0.00000000	          0.00000000	         25.43956747	        705.48974964	        -23.11643922	         -0.12081312	          0.00000000	          0.33275112	          0.00000000	          0.00000000	          0.00000000	          0.00000000	          0.45137619	          0.00000000	
          1.47600000	          0.00000000	          0.00000000	          0.00000000	          0.00000000	          0.00000000	          0.00000000	         25.84589570	        707.16176147	        -23.26955061	         -0.12038202	          0.00000000	          0.33266393	          0.00000000	          0.00000000	          0.00000000	          0.00000000	          0.39615072	          0.00000000	
          1.47700000	          0.00000000	          0.00000000	          0.00000000	          0.00000000	          0.00000000	          0.00000000	         26.26408302	        708.91391956	        -23.40313527	         -0.11999339	          0.00000000	          0.33244116	          0.00000000	          0.00000000	          0.00000000	          0.00000000	          0.34020526	          0.00000000	
          1.47800000	          0.00000000	          0.00000000	          0.00000000	          0.00000000	          0.00000000	          0.00000000	         26.68458273	        710.67867567	        -23.51890980	         -0.11961741	          0.00000000	          0.33215932	          0.00000000	          0.00000000	          0.00000000	          0.00000000	          0.29403016	          0.00000000	
          1.47900000	          0.00000000	          0.00000000	          0.00000000	          0.00000000	          0.00000000	          0.00000000	         27.09491218	        712.38126146	        -23.61867328	         -0.11921871	          0.00000000	          0.33190383	          0.00000000	          0.00000000	          0.00000000	          0.00000000	          0.26842104	          0.00000000	
          1.48000000	          0.00000000	          0.00000000	          0.00000000	          0.00000000	          0.00000000	          0.00000000	         27.49091621	        713.98015050	        -23.70256786	         -0.11877183	          0.00000000	          0.33172457	          0.00000000	          0.00000000	          0.00000000	          0.00000000	          0.26897816	          0.00000000	
          1.48100000	          0.00000000	          0.00000000	          0.00000000	          0.00000000	          0.00000000	          0.00000000	         27.88092945	        715.46762155	        -23.77389715	         -0.11826522	          0.00000000	          0.33164871	          0.00000000	          0.00000000	          0.00000000	          0.00000000	          0.29149543	          0.00000000	
          1.48200000	          0.00000000	          0.00000000	          0.00000000	          0.00000000	          0.00000000	          0.00000000	         28.28184325	        716.87168130	        -23.84063405	         -0.11770011	          0.00000000	          0.33169052	          0.00000000	          0.00000000	          0.00000000	          0.00000000	          0.32253359	          0.00000000	
          1.48300000	          0.00000000	          0.00000000	          0.00000000	          0.00000000	          0.00000000	          0.00000000	         28.70640761	        718.25705296	        -23.90931398	         -0.11709687	          0.00000000	          0.33182466	          0.00000000	          0.00000000	          0.00000000	          0.00000000	          0.34751001	          0.00000000	
          1.48400000	          0.00000000	          0.00000000	          0.00000000	          0.00000000	          0.00000000	          0.00000000	         29.15486956	        719.68796424	        -23.98210755	         -0.11649104	          0.00000000	          0.33198312	          0.00000000	          0.00000000	          0.00000000	          0.00000000	          0.35867141	          0.00000000	
          1.48500000	          0.00000000	          0.00000000	          0.00000000	          0.00000000	          0.00000000	          0.00000000	         29.62167703	        721.18381924	        -24.05842045	         -0.11591168	          0.00000000	          0.33210023	          0.00000000	          0.00000000	          0.00000000	          0.00000000	          0.35579607	          0.00000000	
